<svg width="49" height="55" viewBox="0 0 49 55" fill="none" xmlns="http://www.w3.org/2000/svg">
<path d="M47.7171 36.319L42.8121 31.3418V19.0775C42.8773 14.5233 41.3075 10.0991 38.3924 6.62169C35.4774 3.14433 31.414 0.848687 26.9525 0.158657C24.3632 -0.185437 21.731 0.0316558 19.2315 0.795451C16.7319 1.55925 14.4226 2.85218 12.4574 4.58798C10.4923 6.32379 8.91662 8.46254 7.8355 10.8615C6.75439 13.2606 6.19271 15.8646 6.18794 18.5V31.3418L1.28292 36.319C0.666814 36.9511 0.249009 37.7524 0.0817394 38.6228C-0.0855306 39.4932 0.00515576 40.394 0.342461 41.2127C0.679766 42.0314 1.24873 42.7315 1.97821 43.2257C2.7077 43.7198 3.56534 43.986 4.44393 43.991H13.6V44.926C13.7272 47.7176 14.946 50.3445 16.9891 52.231C19.0323 54.1175 21.7332 55.1097 24.5 54.9904C27.2668 55.1097 29.9677 54.1175 32.0109 52.231C34.054 50.3445 35.2728 47.7176 35.4 44.926V43.991H44.5561C45.4347 43.986 46.2923 43.7198 47.0218 43.2257C47.7513 42.7315 48.3202 42.0314 48.6575 41.2127C48.9948 40.394 49.0855 39.4932 48.9183 38.6228C48.751 37.7524 48.3332 36.9511 47.7171 36.319ZM29.95 44.926C29.7989 46.2486 29.1479 47.4615 28.1326 48.3118C27.1174 49.1621 25.8161 49.5844 24.5 49.4907C23.1839 49.5844 21.8826 49.1621 20.8674 48.3118C19.8521 47.4615 19.2011 46.2486 19.05 44.926V43.991H29.95V44.926Z" fill="#4A4A4A"/>
</svg>
