<svg width="213" height="46" viewBox="0 0 213 46" fill="none" xmlns="http://www.w3.org/2000/svg">
<path d="M52.257 35V8.73H59.472V28.71H71.386V35H52.257ZM72.3466 29.117C72.3466 27.8097 72.7042 26.6627 73.4196 25.676C74.1349 24.6647 75.1216 23.8753 76.3796 23.308C77.6622 22.7407 79.1176 22.457 80.7456 22.457C81.5102 22.457 82.2256 22.5187 82.8916 22.642C83.5822 22.7653 84.1742 22.9503 84.6676 23.197V22.605C84.6676 21.6923 84.3962 21.014 83.8536 20.57C83.3356 20.126 82.4846 19.904 81.3006 19.904C80.2152 19.904 79.1916 20.089 78.2296 20.459C77.2922 20.8043 76.3056 21.3223 75.2696 22.013L73.2346 17.647C74.5419 16.8083 75.9109 16.1917 77.3416 15.797C78.7969 15.3777 80.3509 15.168 82.0036 15.168C85.0869 15.168 87.4672 15.871 89.1446 17.277C90.8466 18.6583 91.6976 20.718 91.6976 23.456V27.23C91.6976 27.896 91.7962 28.3647 91.9936 28.636C92.1909 28.8827 92.5362 29.0307 93.0296 29.08V35C92.4622 35.1233 91.9196 35.2097 91.4016 35.259C90.9082 35.333 90.4642 35.37 90.0696 35.37C88.8116 35.37 87.8496 35.148 87.1836 34.704C86.5422 34.2353 86.1229 33.557 85.9256 32.669L85.7776 31.966C84.9142 33.076 83.9152 33.927 82.7806 34.519C81.6459 35.0863 80.4372 35.37 79.1546 35.37C77.8719 35.37 76.7126 35.0987 75.6766 34.556C74.6406 34.0133 73.8266 33.2733 73.2346 32.336C72.6426 31.374 72.3466 30.301 72.3466 29.117ZM83.7426 29.598C84.0139 29.4007 84.2359 29.191 84.4086 28.969C84.5812 28.7223 84.6676 28.4757 84.6676 28.229V26.786C84.2729 26.638 83.8166 26.5147 83.2986 26.416C82.8052 26.3173 82.3612 26.268 81.9666 26.268C81.1279 26.268 80.4126 26.4777 79.8206 26.897C79.2532 27.3163 78.9696 27.8467 78.9696 28.488C78.9696 28.8333 79.0682 29.154 79.2656 29.45C79.4629 29.7213 79.7342 29.9433 80.0796 30.116C80.4249 30.264 80.8196 30.338 81.2636 30.338C81.6829 30.338 82.1146 30.2763 82.5586 30.153C83.0272 30.005 83.4219 29.82 83.7426 29.598ZM107.964 35.37C106.509 35.37 105.251 35.0863 104.19 34.519C103.129 33.927 102.291 33.076 101.674 31.966V35H95.569V7.99H102.599V18.424C103.166 17.3633 103.968 16.5617 105.004 16.019C106.04 15.4517 107.261 15.168 108.667 15.168C109.851 15.168 110.949 15.427 111.96 15.945C112.971 16.4383 113.847 17.1413 114.587 18.054C115.352 18.9667 115.944 20.052 116.363 21.31C116.782 22.5433 116.992 23.8877 116.992 25.343C116.992 26.7737 116.758 28.1057 116.289 29.339C115.845 30.5477 115.216 31.6083 114.402 32.521C113.613 33.4337 112.663 34.1367 111.553 34.63C110.468 35.1233 109.271 35.37 107.964 35.37ZM105.929 29.45C106.496 29.45 107.014 29.3513 107.483 29.154C107.952 28.9567 108.359 28.6853 108.704 28.34C109.049 27.97 109.308 27.5383 109.481 27.045C109.678 26.5517 109.777 25.9967 109.777 25.38C109.777 24.5907 109.617 23.8753 109.296 23.234C109 22.568 108.581 22.05 108.038 21.68C107.52 21.2853 106.916 21.088 106.225 21.088C105.732 21.088 105.251 21.2113 104.782 21.458C104.313 21.7047 103.882 22.05 103.487 22.494C103.117 22.9133 102.821 23.4067 102.599 23.974V27.452C102.821 27.7727 103.055 28.0687 103.302 28.34C103.573 28.5867 103.845 28.7963 104.116 28.969C104.387 29.117 104.671 29.2403 104.967 29.339C105.288 29.413 105.608 29.45 105.929 29.45ZM129.108 35.37C127.406 35.37 125.889 35.111 124.557 34.593C123.225 34.0503 122.103 33.3227 121.19 32.41C120.302 31.4973 119.624 30.449 119.155 29.265C118.686 28.081 118.452 26.8353 118.452 25.528C118.452 23.6533 118.859 21.939 119.673 20.385C120.487 18.8063 121.683 17.5483 123.262 16.611C124.841 15.649 126.789 15.168 129.108 15.168C131.427 15.168 133.375 15.6367 134.954 16.574C136.533 17.5113 137.729 18.7447 138.543 20.274C139.357 21.8033 139.764 23.4683 139.764 25.269C139.764 25.639 139.739 26.0213 139.69 26.416C139.665 26.786 139.628 27.119 139.579 27.415H125.926C125.975 28.1057 126.16 28.673 126.481 29.117C126.826 29.5363 127.246 29.8447 127.739 30.042C128.257 30.2393 128.787 30.338 129.33 30.338C130.095 30.338 130.81 30.1653 131.476 29.82C132.167 29.4747 132.623 28.9937 132.845 28.377L138.802 30.079C138.284 31.115 137.556 32.0277 136.619 32.817C135.706 33.6063 134.621 34.2353 133.363 34.704C132.105 35.148 130.687 35.37 129.108 35.37ZM125.778 23.197H132.216C132.142 22.5557 131.957 22.013 131.661 21.569C131.39 21.125 131.02 20.7797 130.551 20.533C130.107 20.2863 129.589 20.163 128.997 20.163C128.405 20.163 127.875 20.2863 127.406 20.533C126.962 20.7797 126.592 21.125 126.296 21.569C126.025 22.013 125.852 22.5557 125.778 23.197ZM141.924 7.99H148.954V27.267C148.954 27.9823 149.102 28.5373 149.398 28.932C149.719 29.302 150.175 29.487 150.767 29.487C151.063 29.487 151.384 29.4377 151.729 29.339C152.074 29.2403 152.395 29.1047 152.691 28.932L153.579 34.112C152.74 34.5067 151.791 34.815 150.73 35.037C149.694 35.259 148.707 35.37 147.77 35.37C145.895 35.37 144.452 34.889 143.441 33.927C142.43 32.9403 141.924 31.5467 141.924 29.746V7.99ZM155.224 35V15.538H162.254V35H155.224ZM155.224 13.91V7.99H162.254V13.91H155.224ZM164.849 30.856L173.729 20.348H165.404V15.538H181.055V19.682L172.212 30.19H181.388V35H164.849V30.856ZM193.424 35.37C191.722 35.37 190.205 35.111 188.873 34.593C187.541 34.0503 186.419 33.3227 185.506 32.41C184.618 31.4973 183.94 30.449 183.471 29.265C183.003 28.081 182.768 26.8353 182.768 25.528C182.768 23.6533 183.175 21.939 183.989 20.385C184.803 18.8063 186 17.5483 187.578 16.611C189.157 15.649 191.106 15.168 193.424 15.168C195.743 15.168 197.692 15.6367 199.27 16.574C200.849 17.5113 202.045 18.7447 202.859 20.274C203.673 21.8033 204.08 23.4683 204.08 25.269C204.08 25.639 204.056 26.0213 204.006 26.416C203.982 26.786 203.945 27.119 203.895 27.415H190.242C190.292 28.1057 190.477 28.673 190.797 29.117C191.143 29.5363 191.562 29.8447 192.055 30.042C192.573 30.2393 193.104 30.338 193.646 30.338C194.411 30.338 195.126 30.1653 195.792 29.82C196.483 29.4747 196.939 28.9937 197.161 28.377L203.118 30.079C202.6 31.115 201.873 32.0277 200.935 32.817C200.023 33.6063 198.937 34.2353 197.679 34.704C196.421 35.148 195.003 35.37 193.424 35.37ZM190.094 23.197H196.532C196.458 22.5557 196.273 22.013 195.977 21.569C195.706 21.125 195.336 20.7797 194.867 20.533C194.423 20.2863 193.905 20.163 193.313 20.163C192.721 20.163 192.191 20.2863 191.722 20.533C191.278 20.7797 190.908 21.125 190.612 21.569C190.341 22.013 190.168 22.5557 190.094 23.197Z" fill="#4A4A4A"/>
<rect x="2" y="5" width="36" height="36" stroke="#4E77F2" stroke-width="4"/>
<path d="M6.44 37V8.6H14.24V30.2H27.12V37H6.44Z" fill="#4E77F2"/>
</svg>
