<svg width="53" height="55" viewBox="0 0 53 55" fill="none" xmlns="http://www.w3.org/2000/svg">
<path d="M18.5325 51.6507V43.2169C18.5325 41.0797 20.2953 39.3434 22.4788 39.3299H30.4962C32.6895 39.3299 34.4675 41.0702 34.4675 43.2169V51.6263C34.4674 53.4799 35.9954 54.9864 37.8893 54.9999H43.3591C45.9137 55.0063 48.366 54.0176 50.1747 52.2519C51.9835 50.4861 53 48.0885 53 45.5881V21.631C53 19.6113 52.0852 17.6954 50.5024 16.3996L31.9199 1.85423C28.6716 -0.689912 24.0324 -0.607726 20.8803 2.0498L2.69746 16.3996C1.03975 17.6572 0.0489617 19.5788 0 21.631V45.5637C0 50.7751 4.31638 54.9999 9.64091 54.9999H14.9859C15.8977 55.0063 16.7745 54.6564 17.4216 54.0276C18.0687 53.3988 18.4326 52.5432 18.4326 51.6507H18.5325Z" fill="#4A4A4A"/>
</svg>
